0
SECTION
2
HEADER
9
$INSUNITS
70
4
9
$ACADVER
1
AC1014
9
$HANDSEED
5
FFFF
0
ENDSEC
0
SECTION
2
TABLES
0
TABLE
2
VPORT
5
8
100
AcDbSymbolTable
0
ENDTAB
0
TABLE
2
LTYPE
5
5
100
AcDbSymbolTable
0
LTYPE
5
14
100
AcDbSymbolTableRecord
100
AcDbLinetypeTableRecord
2
BYBLOCK
70
0
0
LTYPE
5
15
100
AcDbSymbolTableRecord
100
AcDbLinetypeTableRecord
2
BYLAYER
70
0
0
ENDTAB
0
TABLE
2
LAYER
5
2
100
AcDbSymbolTable
70
2
0
LAYER
5
50
100
AcDbSymbolTableRecord
100
AcDbLayerTableRecord
2
0
70
0
6
CONTINUOUS
0
ENDTAB
0
TABLE
2
STYLE
5
3
100
AcDbSymbolTable
70
1
0
STYLE
5
11
100
AcDbSymbolTableRecord
100
AcDbTextStyleTableRecord
2
STANDARD
70
0
0
ENDTAB
0
TABLE
2
VIEW
5
6
100
AcDbSymbolTable
70
0
0
ENDTAB
0
TABLE
2
UCS
5
7
100
AcDbSymbolTable
70
0
0
ENDTAB
0
TABLE
2
APPID
5
9
100
AcDbSymbolTable
70
2
0
APPID
5
12
100
AcDbSymbolTableRecord
100
AcDbRegAppTableRecord
2
ACAD
70
0
0
ENDTAB
0
TABLE
2
DIMSTYLE
5
A
100
AcDbSymbolTable
70
1
0
ENDTAB
0
TABLE
2
BLOCK_RECORD
5
1
100
AcDbSymbolTable
70
1
0
BLOCK_RECORD
5
1F
100
AcDbSymbolTableRecord
100
AcDbBlockTableRecord
2
*MODEL_SPACE
0
BLOCK_RECORD
5
1B
100
AcDbSymbolTableRecord
100
AcDbBlockTableRecord
2
*PAPER_SPACE
0
ENDTAB
0
ENDSEC
0
SECTION
2
BLOCKS
0
BLOCK
5
20
100
AcDbEntity
100
AcDbBlockBegin
2
*MODEL_SPACE
0
ENDBLK
5
21
100
AcDbEntity
100
AcDbBlockEnd
0
BLOCK
5
1C
100
AcDbEntity
100
AcDbBlockBegin
2
*PAPER_SPACE
0
ENDBLK
5
1D
100
AcDbEntity
100
AcDbBlockEnd
0
ENDSEC
0
SECTION
2
ENTITIES
0
ARC
5
100
100
AcDbEntity
8
0
100
AcDbCircle
10
-24.267927329335087
20
-49.269094804667603
30
0
40
3.149999999999999
210
-0
220
0
230
1
100
AcDbArc
50
-48.376213786047124
51
96.083888787050242
0
SPLINE
5
101
100
AcDbEntity
8
0
100
AcDbSpline
70
4
71
5
72
14
73
8
74
0
42
0.000000001
43
0.0000000001
44
0.0000000001
40
-0.2343097965919963
40
-0.2343097965919963
40
-0.2343097965919963
40
-0.2343097965919963
40
-0.2343097965919963
40
-0.2343097965919963
40
-0.20000000000000001
40
-0.10000000000000001
40
0
40
0
40
0
40
0
40
0
40
0
41
1
41
1
41
1
41
1
41
1
41
1
41
1
41
1
10
-24.601778395851671
20
-46.136836279994746
30
0
10
-24.451842811198468
20
-45.853549893083716
30
0
10
-23.770801536744091
20
-44.698788697402357
30
0
10
-21.952254950399109
20
-42.419877328118282
30
0
10
-19.177558861895697
20
-40.063797273760791
30
0
10
-15.85983288006596
20
-38.420192464573205
30
0
10
-12.856999966084304
20
-37.859060433606089
30
0
10
-11.311704381358179
20
-37.788067327513673
30
0
0
SPLINE
5
102
100
AcDbEntity
8
0
100
AcDbSpline
70
4
71
5
72
21
73
15
74
0
42
0.000000001
43
0.0000000001
44
0.0000000001
40
-1
40
-1
40
-1
40
-1
40
-1
40
-1
40
-0.89999999999999991
40
-0.79999999999999993
40
-0.69999999999999996
40
-0.59999999999999998
40
-0.5
40
-0.40000000000000002
40
-0.30000000000000004
40
-0.20000000000000001
40
-0.10000000000000001
40
0
40
0
40
0
40
0
40
0
40
0
41
1
41
1
41
1
41
1
41
1
41
1
41
1
41
1
41
1
41
1
41
1
41
1
41
1
41
1
41
1
10
-11.311704381358179
20
-37.788067327513673
30
0
10
-10.658294325119492
20
-37.916621509001502
30
0
10
-9.4426923028774095
20
-38.492486423612299
30
0
10
-7.8935154889089718
20
-40.306402363579188
30
0
10
-6.3993607706523017
20
-43.945300516482916
30
0
10
-5.5807419623129189
20
-47.5072788730117
30
0
10
-5.7164777996329832
20
-49.233488867604372
30
0
10
-6.5680042994389289
20
-50.953029285489563
30
0
10
-8.0638099656749169
20
-53.795881363421358
30
0
10
-10.179708600369269
20
-59.231849931400987
30
0
10
-12.963394199477207
20
-68.557096148048842
30
0
10
-15.785668353656186
20
-80.107675610681625
30
0
10
-18.27430277227197
20
-91.48371073705502
30
0
10
-20.104559530462815
20
-100.32989071398467
30
0
10
-21.062486474606441
20
-105.0684928615768
30
0
0
SPLINE
5
103
100
AcDbEntity
8
0
100
AcDbSpline
70
4
71
5
72
15
73
9
74
0
42
0.000000001
43
0.0000000001
44
0.0000000001
40
-1
40
-1
40
-1
40
-1
40
-1
40
-1
40
-0.89999999999999991
40
-0.79999999999999993
40
-0.69999999999999996
40
-0.61872923992199458
40
-0.61872923992199458
40
-0.61872923992199458
40
-0.61872923992199458
40
-0.61872923992199458
40
-0.61872923992199458
41
1
41
1
41
1
41
1
41
1
41
1
41
1
41
1
41
1
10
-21.062486474606441
20
-105.0684928615768
30
0
10
-22.537757102640409
20
-99.719398830266982
30
0
10
-24.939847957888745
20
-89.756408071323591
30
0
10
-26.897622423153763
20
-77.017209060949369
30
0
10
-26.6738869023091
20
-64.897065251550259
30
0
10
-24.676017689390662
20
-57.33593781776375
30
0
10
-23.202444295211517
20
-53.797167421578365
30
0
10
-22.455771017456073
20
-52.210576899519303
30
0
10
-22.175582032641231
20
-51.623790360233777
30
0
0
CIRCLE
5
104
100
AcDbEntity
8
0
100
AcDbCircle
10
-12.188947646475219
20
-42.191083090841559
30
0
40
3.1500000000000004
210
0
220
-0
230
1
0
ENDSEC
0
SECTION
2
OBJECTS
0
DICTIONARY
5
C
100
AcDbDictionary
3
ACAD_GROUP
350
D
3
ACAD_MLINESTYLE
350
17
0
DICTIONARY
5
D
100
AcDbDictionary
0
DICTIONARY
5
1A
330
C
100
AcDbDictionary
0
DICTIONARY
5
17
100
AcDbDictionary
0
ENDSEC
0
EOF
